<mxfile host="Electron" agent="Mozilla/5.0 (Windows NT 10.0; Win64; x64) AppleWebKit/537.36 (KHTML, like Gecko) draw.io/27.0.5 Chrome/134.0.6998.205 Electron/35.3.0 Safari/537.36" version="27.0.5">
  <diagram name="Page-1" id="8I0sMokQ6cmOlmBwniLV">
    <mxGraphModel dx="856" dy="513" grid="1" gridSize="10" guides="1" tooltips="1" connect="1" arrows="1" fold="1" page="1" pageScale="1" pageWidth="850" pageHeight="1100" math="0" shadow="0">
      <root>
        <mxCell id="0" />
        <mxCell id="1" parent="0" />
        <mxCell id="ep_iYdGs_ZrjbY9rzKFJ-1" value="&lt;font style=&quot;font-size: 14px;&quot;&gt;User&lt;/font&gt;" style="swimlane;whiteSpace=wrap;html=1;" parent="1" vertex="1">
          <mxGeometry x="152" y="30" width="250" height="630" as="geometry">
            <mxRectangle x="100" y="170" width="140" height="30" as="alternateBounds" />
          </mxGeometry>
        </mxCell>
        <mxCell id="ep_iYdGs_ZrjbY9rzKFJ-21" style="edgeStyle=orthogonalEdgeStyle;rounded=0;orthogonalLoop=1;jettySize=auto;html=1;exitX=0.5;exitY=1;exitDx=0;exitDy=0;entryX=0.5;entryY=0;entryDx=0;entryDy=0;" parent="ep_iYdGs_ZrjbY9rzKFJ-1" source="ep_iYdGs_ZrjbY9rzKFJ-2" target="ep_iYdGs_ZrjbY9rzKFJ-4" edge="1">
          <mxGeometry relative="1" as="geometry" />
        </mxCell>
        <mxCell id="ep_iYdGs_ZrjbY9rzKFJ-2" value="" style="whiteSpace=wrap;html=1;aspect=fixed;" parent="ep_iYdGs_ZrjbY9rzKFJ-1" vertex="1">
          <mxGeometry x="30" y="40" width="30" height="30" as="geometry" />
        </mxCell>
        <mxCell id="ep_iYdGs_ZrjbY9rzKFJ-4" value="&lt;font style=&quot;font-size: 14px;&quot;&gt;Initiate Purchase&lt;/font&gt;" style="rounded=1;whiteSpace=wrap;html=1;" parent="ep_iYdGs_ZrjbY9rzKFJ-1" vertex="1">
          <mxGeometry x="60" y="120" width="120" height="60" as="geometry" />
        </mxCell>
        <mxCell id="ep_iYdGs_ZrjbY9rzKFJ-5" value="&lt;font style=&quot;font-size: 14px;&quot;&gt;Application&lt;/font&gt;" style="swimlane;whiteSpace=wrap;html=1;" parent="1" vertex="1">
          <mxGeometry x="402" y="30" width="250" height="630" as="geometry">
            <mxRectangle x="100" y="170" width="140" height="30" as="alternateBounds" />
          </mxGeometry>
        </mxCell>
        <mxCell id="ep_iYdGs_ZrjbY9rzKFJ-7" value="&lt;font style=&quot;font-size: 14px;&quot;&gt;Validate ListedCompanies&lt;/font&gt;" style="rounded=1;whiteSpace=wrap;html=1;" parent="ep_iYdGs_ZrjbY9rzKFJ-5" vertex="1">
          <mxGeometry x="20" y="120" width="200" height="60" as="geometry" />
        </mxCell>
        <mxCell id="ep_iYdGs_ZrjbY9rzKFJ-8" value="&lt;font style=&quot;font-size: 14px;&quot;&gt;Stock Management&lt;/font&gt;" style="swimlane;whiteSpace=wrap;html=1;" parent="1" vertex="1">
          <mxGeometry x="652" y="30" width="290" height="630" as="geometry">
            <mxRectangle x="100" y="170" width="140" height="30" as="alternateBounds" />
          </mxGeometry>
        </mxCell>
        <mxCell id="ep_iYdGs_ZrjbY9rzKFJ-11" style="edgeStyle=orthogonalEdgeStyle;rounded=0;orthogonalLoop=1;jettySize=auto;html=1;exitX=0.5;exitY=1;exitDx=0;exitDy=0;entryX=0.5;entryY=0;entryDx=0;entryDy=0;" parent="ep_iYdGs_ZrjbY9rzKFJ-8" source="ep_iYdGs_ZrjbY9rzKFJ-9" target="ep_iYdGs_ZrjbY9rzKFJ-10" edge="1">
          <mxGeometry relative="1" as="geometry" />
        </mxCell>
        <mxCell id="ep_iYdGs_ZrjbY9rzKFJ-9" value="&lt;font style=&quot;font-size: 14px;&quot;&gt;Check User Funds&lt;/font&gt;" style="rounded=1;whiteSpace=wrap;html=1;" parent="ep_iYdGs_ZrjbY9rzKFJ-8" vertex="1">
          <mxGeometry x="60" y="120" width="130" height="60" as="geometry" />
        </mxCell>
        <mxCell id="ep_iYdGs_ZrjbY9rzKFJ-15" style="edgeStyle=orthogonalEdgeStyle;rounded=0;orthogonalLoop=1;jettySize=auto;html=1;exitX=0.5;exitY=1;exitDx=0;exitDy=0;entryX=0.5;entryY=0;entryDx=0;entryDy=0;" parent="ep_iYdGs_ZrjbY9rzKFJ-8" source="ep_iYdGs_ZrjbY9rzKFJ-10" target="ep_iYdGs_ZrjbY9rzKFJ-12" edge="1">
          <mxGeometry relative="1" as="geometry" />
        </mxCell>
        <mxCell id="ep_iYdGs_ZrjbY9rzKFJ-17" value="&lt;font style=&quot;font-size: 14px;&quot;&gt;No&lt;/font&gt;" style="edgeLabel;html=1;align=center;verticalAlign=middle;resizable=0;points=[];" parent="ep_iYdGs_ZrjbY9rzKFJ-15" vertex="1" connectable="0">
          <mxGeometry x="-0.0016" y="-1" relative="1" as="geometry">
            <mxPoint as="offset" />
          </mxGeometry>
        </mxCell>
        <mxCell id="ep_iYdGs_ZrjbY9rzKFJ-16" style="edgeStyle=orthogonalEdgeStyle;rounded=0;orthogonalLoop=1;jettySize=auto;html=1;exitX=0.5;exitY=1;exitDx=0;exitDy=0;entryX=0.5;entryY=0;entryDx=0;entryDy=0;" parent="ep_iYdGs_ZrjbY9rzKFJ-8" source="ep_iYdGs_ZrjbY9rzKFJ-10" target="ep_iYdGs_ZrjbY9rzKFJ-13" edge="1">
          <mxGeometry relative="1" as="geometry" />
        </mxCell>
        <mxCell id="ep_iYdGs_ZrjbY9rzKFJ-18" value="&lt;font style=&quot;font-size: 14px;&quot;&gt;Yes&lt;/font&gt;" style="edgeLabel;html=1;align=center;verticalAlign=middle;resizable=0;points=[];" parent="ep_iYdGs_ZrjbY9rzKFJ-16" vertex="1" connectable="0">
          <mxGeometry x="0.0468" y="1" relative="1" as="geometry">
            <mxPoint as="offset" />
          </mxGeometry>
        </mxCell>
        <mxCell id="ep_iYdGs_ZrjbY9rzKFJ-10" value="&lt;font style=&quot;font-size: 14px;&quot;&gt;Funds&amp;nbsp;&lt;/font&gt;&lt;div&gt;&lt;font style=&quot;font-size: 14px;&quot;&gt;Sufficient ?&lt;/font&gt;&lt;/div&gt;" style="rhombus;whiteSpace=wrap;html=1;" parent="ep_iYdGs_ZrjbY9rzKFJ-8" vertex="1">
          <mxGeometry x="67.5" y="250" width="115" height="80" as="geometry" />
        </mxCell>
        <mxCell id="ep_iYdGs_ZrjbY9rzKFJ-25" style="edgeStyle=orthogonalEdgeStyle;rounded=0;orthogonalLoop=1;jettySize=auto;html=1;exitX=0.5;exitY=1;exitDx=0;exitDy=0;entryX=0;entryY=0.5;entryDx=0;entryDy=0;" parent="ep_iYdGs_ZrjbY9rzKFJ-8" source="ep_iYdGs_ZrjbY9rzKFJ-12" target="ep_iYdGs_ZrjbY9rzKFJ-22" edge="1">
          <mxGeometry relative="1" as="geometry" />
        </mxCell>
        <mxCell id="ep_iYdGs_ZrjbY9rzKFJ-12" value="&lt;font style=&quot;font-size: 14px;&quot;&gt;Insufficient Funds Error&lt;/font&gt;" style="rounded=1;whiteSpace=wrap;html=1;" parent="ep_iYdGs_ZrjbY9rzKFJ-8" vertex="1">
          <mxGeometry x="10" y="375" width="120" height="60" as="geometry" />
        </mxCell>
        <mxCell id="ep_iYdGs_ZrjbY9rzKFJ-20" style="edgeStyle=orthogonalEdgeStyle;rounded=0;orthogonalLoop=1;jettySize=auto;html=1;exitX=0.5;exitY=1;exitDx=0;exitDy=0;entryX=0.5;entryY=0;entryDx=0;entryDy=0;" parent="ep_iYdGs_ZrjbY9rzKFJ-8" source="ep_iYdGs_ZrjbY9rzKFJ-13" target="ep_iYdGs_ZrjbY9rzKFJ-19" edge="1">
          <mxGeometry relative="1" as="geometry" />
        </mxCell>
        <mxCell id="ep_iYdGs_ZrjbY9rzKFJ-13" value="&lt;font style=&quot;font-size: 14px;&quot;&gt;Create ShareHoldings&lt;/font&gt;" style="rounded=1;whiteSpace=wrap;html=1;" parent="ep_iYdGs_ZrjbY9rzKFJ-8" vertex="1">
          <mxGeometry x="162" y="375" width="120" height="60" as="geometry" />
        </mxCell>
        <mxCell id="ep_iYdGs_ZrjbY9rzKFJ-24" style="edgeStyle=orthogonalEdgeStyle;rounded=0;orthogonalLoop=1;jettySize=auto;html=1;exitX=0.5;exitY=1;exitDx=0;exitDy=0;entryX=1;entryY=0.5;entryDx=0;entryDy=0;" parent="ep_iYdGs_ZrjbY9rzKFJ-8" source="ep_iYdGs_ZrjbY9rzKFJ-19" target="ep_iYdGs_ZrjbY9rzKFJ-22" edge="1">
          <mxGeometry relative="1" as="geometry" />
        </mxCell>
        <mxCell id="ep_iYdGs_ZrjbY9rzKFJ-19" value="&lt;font style=&quot;font-size: 14px;&quot;&gt;Update Historical Prices&lt;/font&gt;" style="rounded=1;whiteSpace=wrap;html=1;" parent="ep_iYdGs_ZrjbY9rzKFJ-8" vertex="1">
          <mxGeometry x="162" y="480" width="120" height="60" as="geometry" />
        </mxCell>
        <mxCell id="ep_iYdGs_ZrjbY9rzKFJ-22" value="" style="whiteSpace=wrap;html=1;aspect=fixed;" parent="ep_iYdGs_ZrjbY9rzKFJ-8" vertex="1">
          <mxGeometry x="130" y="580" width="30" height="30" as="geometry" />
        </mxCell>
        <mxCell id="ep_iYdGs_ZrjbY9rzKFJ-26" style="edgeStyle=orthogonalEdgeStyle;rounded=0;orthogonalLoop=1;jettySize=auto;html=1;exitX=1;exitY=0.5;exitDx=0;exitDy=0;entryX=0;entryY=0.5;entryDx=0;entryDy=0;" parent="1" source="ep_iYdGs_ZrjbY9rzKFJ-4" target="ep_iYdGs_ZrjbY9rzKFJ-7" edge="1">
          <mxGeometry relative="1" as="geometry" />
        </mxCell>
        <mxCell id="ep_iYdGs_ZrjbY9rzKFJ-27" style="edgeStyle=orthogonalEdgeStyle;rounded=0;orthogonalLoop=1;jettySize=auto;html=1;exitX=1;exitY=0.5;exitDx=0;exitDy=0;entryX=0;entryY=0.5;entryDx=0;entryDy=0;" parent="1" source="ep_iYdGs_ZrjbY9rzKFJ-7" target="ep_iYdGs_ZrjbY9rzKFJ-9" edge="1">
          <mxGeometry relative="1" as="geometry" />
        </mxCell>
      </root>
    </mxGraphModel>
  </diagram>
</mxfile>
